<?xml version="1.0" encoding="UTF-8" standalone="no"?>
<svg width="96px" height="96px" viewBox="0 0 96 96" version="1.1" xmlns="http://www.w3.org/2000/svg" xmlns:xlink="http://www.w3.org/1999/xlink">
    <!-- Generator: sketchtool 39.1 (31720) - http://www.bohemiancoding.com/sketch -->
    <title>683E2D6C-5B68-4663-8495-90D6F7C2AE46</title>
    <desc>Created with sketchtool.</desc>
    <defs>
        <circle id="path-1" cx="48" cy="48" r="48"></circle>
    </defs>
    <g id="Page-1" stroke="none" stroke-width="1" fill="none" fill-rule="evenodd">
        <g id="收货地址-空" transform="translate(-132.000000, -272.000000)">
            <g id="Group-4" transform="translate(132.000000, 272.000000)">
                <g id="Combined-Shape">
                    <mask id="mask-2" fill="white">
                        <use xlink:href="#path-1"></use>
                    </mask>
                    <use id="Mask" fill-opacity="0.05" fill="#000000" xlink:href="#path-1"></use>
                    <path d="M76.3468544,51.7112183 C75.8998158,49.7357582 75.4229747,47.8106924 74.9063968,45.9662577 C74.3898189,44.1319019 73.4858075,42.549518 72.2440337,41.2594216 C71.4294301,40.4934269 70.5750897,39.9390886 69.65121,39.5964067 C68.7273303,39.2537248 67.8531214,39.0319895 67.0285837,38.9312007 C66.2040458,38.8203331 65.5086526,38.8001753 64.9424037,38.8505697 L64.0483266,38.911043 C63.5317487,38.911043 63.08471,39.1126205 62.7171451,39.4956179 C62.3694484,39.8786152 62.1707646,40.2918492 62.1707646,40.7353198 L62.1707646,46.2585451 C62.1707646,47.8812445 62.1806988,49.6853637 62.2303697,51.6709027 L62.2303697,51.731376 C62.2303697,51.9329535 62.3694484,52.1748466 62.6476057,52.4570552 C62.925763,52.7392638 63.2039204,52.8803681 63.4920118,52.8803681 L74.5885027,52.8803681 L74.5885027,52.8803681 C75.0653438,52.8803681 75.5024482,52.8702892 75.8501449,52.8400526 C76.21771,52.8299738 76.3965253,52.5679229 76.3965253,52.0841367 C76.3965253,52.0035057 76.3865912,51.9430324 76.3667228,51.9027169 C76.3567885,51.8523226 76.3468544,51.7918492 76.3468544,51.7112183 L76.3468544,51.7112183 Z M31.0370112,70.7905346 C30.2919469,71.5766872 29.3780013,71.9395268 28.3051088,71.9395268 C27.2123478,71.9395268 26.2984024,71.5565294 25.5533381,70.7905346 C24.8082737,70.0245399 24.4307745,69.1073619 24.4307745,68.0591586 C24.4307745,66.9605609 24.8082737,66.0232253 25.5533381,65.2673094 C26.2984024,64.5013146 27.2123479,64.1183173 28.3051088,64.1183173 C29.3879356,64.1183173 30.3118153,64.5013146 31.0370112,65.2673094 C31.7820755,66.0333041 32.1595748,66.9706398 32.1595748,68.0591586 C32.1595748,69.1174409 31.7920097,70.0245399 31.0370112,70.7905346 L31.0370112,70.7905346 Z M53.965123,67.2629273 C53.4982161,67.7164768 52.9518355,67.948291 52.3061132,67.948291 L35.8451595,67.948291 C35.8451595,65.5595969 35.2391739,63.6748466 34.0371368,62.2940403 C32.8350997,60.913234 30.9376694,60.2278703 28.3547798,60.2278703 C25.9010347,60.2278703 24.0234727,60.8729186 22.7121596,62.1327783 C21.3909122,63.4127959 20.7451899,65.3479404 20.7451899,67.9382121 L19.3544031,67.9382121 C18.668944,67.9382121 18.1026952,67.7265557 17.675525,67.3234006 C17.2284863,66.9202455 17,66.3255917 17,65.559597 L17,33.9723926 C17,33.0048203 17.1788155,32.037248 17.5463805,31.1099912 C17.9139454,30.1827344 18.4305234,29.3260297 19.08618,28.560035 C19.7617049,27.7940403 20.5266376,27.1691498 21.4107806,26.6954426 C22.2949235,26.241893 23.25854,26 24.30163,26 L54.5512402,26 L54.6605163,65.5696757 C54.6704506,66.2550394 54.43203,66.8194566 53.965123,67.2629273 L53.965123,67.2629273 Z M72.5420594,70.8510079 C71.7671925,71.6170026 70.8731154,72 69.8200912,72 C68.7372644,72 67.8133847,71.6170026 67.0881888,70.8510079 C66.3431245,70.0850131 65.9656252,69.1476775 65.9656252,68.0591586 C65.9656252,67.0109553 66.3431245,66.0937774 67.0881888,65.3277826 C67.8332531,64.5617879 68.7471987,64.1787905 69.8200912,64.1787905 C70.8731154,64.1787905 71.7671925,64.5617879 72.5420594,65.3277826 C73.3169263,66.0937774 73.6944255,67.0109553 73.6944255,68.0591586 C73.6844913,69.1476775 73.2970579,70.0850131 72.5420594,70.8510079 L72.5420594,70.8510079 Z M80.9861214,64.8339176 C80.9861214,65.0758107 80.9761872,65.3580193 80.9265162,65.7208588 C80.8867795,66.0635407 80.8172402,66.4062226 80.7178982,66.7489045 C80.6185563,67.0915864 80.4894119,67.3939527 80.3503331,67.6358457 C80.2112545,67.8777388 80.032439,67.9886064 79.7741501,67.9886064 L77.2906025,67.9886064 C77.2906025,66.617879 77.0819845,65.4386503 76.6548142,64.4710779 C76.2375783,63.5035056 75.6713294,62.7072743 74.9759361,62.0924627 C74.2706085,61.4776511 73.4460707,61.0442594 72.5023226,60.7519719 C71.5486403,60.4697633 70.5552213,60.328659 69.5121312,60.328659 C68.459107,60.328659 67.4954905,60.5403155 66.6113475,60.9434705 C65.7272045,61.3567045 64.9424035,61.900964 64.286747,62.5762488 C63.6310904,63.2616126 63.1045783,64.0679229 62.7171449,64.9851007 C62.3396456,65.8921997 62.1409618,66.859772 62.1409618,67.8777388 L61.0581351,67.8777388 C60.3428733,67.8777388 59.7070852,67.6257669 59.1905073,67.0815074 C58.6739294,66.5574058 58.4057062,65.9325153 58.4057062,65.2068361 L58.4057062,65.1463629 L58.4057062,35.9075372 C58.4057062,35.4640666 58.5646533,34.939965 58.8527449,34.35539 C59.1607047,33.7708151 59.5282698,33.4583698 59.9753084,33.4180543 C61.2965558,33.2870289 62.6873425,33.3475021 64.1377342,33.5793164 C65.5781918,33.7909729 67.0087153,34.1739702 68.4193704,34.7081507 C69.8399597,35.2322524 71.1512728,35.927695 72.4029808,36.7743207 C73.6546888,37.6310253 74.6878447,38.6389131 75.542185,39.8181419 C77.0720504,41.9246274 78.2244164,44.1722172 78.9794149,46.5609113 C79.7344134,48.9496054 80.2708597,51.2979841 80.5788196,53.5758105 C80.8867794,55.8637159 81.0258582,58.0004381 80.9960555,59.996056 C81.0059898,61.9614373 80.9861214,63.5841367 80.9861214,64.8339176 L80.9861214,64.8339176 Z" id="Shape" fill="#D0D0D0" mask="url(#mask-2)"></path>
                </g>
            </g>
        </g>
    </g>
</svg>