<?xml version="1.0" encoding="UTF-8" standalone="no"?>
<svg width="96px" height="96px" viewBox="0 0 96 96" version="1.1" xmlns="http://www.w3.org/2000/svg" xmlns:xlink="http://www.w3.org/1999/xlink">
    <!-- Generator: sketchtool 3.8.3 (29802) - http://www.bohemiancoding.com/sketch -->
    <title>0B2F50AA-BC6C-4D1A-B6F8-A7A343837838</title>
    <desc>Created with sketchtool.</desc>
    <defs>
        <circle id="path-1" cx="48" cy="48" r="48"></circle>
    </defs>
    <g id="Page-1" stroke="none" stroke-width="1" fill="none" fill-rule="evenodd">
        <g id="粉丝订单" transform="translate(-132.000000, -336.000000)">
            <g id="Group-4" transform="translate(129.000000, 336.000000)">
                <g id="Combined-Shape" transform="translate(3.000000, 0.000000)">
                    <mask id="mask-2" fill="white">
                        <use xlink:href="#path-1"></use>
                    </mask>
                    <use id="Mask" fill-opacity="0.05" fill="#000000" xlink:href="#path-1"></use>
                    <path d="M44.9298845,16.2278779 C46.8376384,15.8802168 48.7921367,15.9532549 50.6969691,16.2921514 C60.4519314,17.2737829 69.20189,24.3467878 72.4652302,33.5554255 C74.4372576,38.974849 74.4489437,45.0749871 72.7778331,50.5703701 C70.8554715,56.2468876 67.0925511,61.3507867 62.0178672,64.5878331 C56.5166411,68.2426573 49.5809477,69.6683601 43.080561,68.4997512 C36.8898557,67.4626109 31.1636724,64.0502731 27.1816378,59.209311 C23.9358267,55.2973929 21.9199765,50.4038434 21.3093784,45.3671393 C21.2304973,43.406798 21.2217327,41.4376921 21.3181429,39.4773508 C21.7563713,36.3454791 22.6328279,33.2545087 24.099432,30.4440044 C28.0434868,22.5997176 36.1799258,17.028375 44.9298845,16.2278779 L44.9298845,16.2278779 Z M39.7412613,27.2390947 C39.1978581,29.5763124 39.2533671,32.0800568 38.2220698,34.291649 C37.529669,35.9306229 36.4253337,37.3796979 35.0580613,38.5132485 C32.8756843,40.4210024 30.1352966,41.4902795 27.479633,42.5391059 C27.3394,45.0311643 27.9032537,47.5349087 28.8585915,49.8341466 C31.838544,57.9179982 40.5768166,63.4425965 49.16317,62.5924335 C54.1735804,62.2418509 58.9882488,59.8520458 62.385979,56.1680065 C65.6463976,52.7001597 67.55123,48.0198814 67.7615796,43.278251 C67.9310279,42.4806755 67.1451385,42.0628978 66.622186,41.6509632 C63.9256211,39.7841106 60.8667875,38.4869548 57.7203082,37.592969 C54.2115602,36.2549119 50.416503,35.6150985 47.1531628,33.6810509 C45.5638548,32.8104373 44.1556811,31.504517 43.4662019,29.8012696 C42.5897453,27.7766548 42.9695432,25.5300043 43.013366,23.3972932 C41.4737239,24.1802611 40.1269022,25.5037106 39.7412613,27.2390947 Z M28.9696093,70.7347156 C30.6377984,70.451328 32.3293597,70.2672721 34.020921,70.3344671 C44.0475848,70.3373886 54.0742486,70.3461532 64.1009125,70.328624 C66.292054,70.4133482 68.602978,70.64707 70.382185,72.0698512 C73.5345073,74.2668358 74.3905133,78.2108906 75.6058665,81.6115424 C76.0908391,83.2066934 76.9585312,84.6879051 77.192253,86.3531727 C72.4681517,89.8034903 67.1626676,92.4971337 61.5036793,94.0134036 C59.744923,94.4048876 58.0475187,95.0534655 56.2507826,95.2725797 C52.1781808,95.8627271 48.032541,96.2688187 43.9248809,95.7867676 C41.2195514,95.5530458 38.4996144,95.2345999 35.9023812,94.4165737 C30.4303703,93.1749268 25.2446686,90.7968078 20.5731548,87.7116805 C20.0239087,87.3494118 19.4658979,86.9929861 19.0042974,86.5196995 C18.9487885,85.8126911 19.4454473,85.1874854 19.6616399,84.5330645 C20.7396816,81.7985198 22.0222298,79.1486992 23.0622916,76.399547 C24.1111181,73.7877062 26.2029279,71.5030759 28.9696093,70.7347156 Z" fill-opacity="0.12" fill="#000000" mask="url(#mask-2)"></path>
                </g>
            </g>
        </g>
    </g>
</svg>