<?xml version="1.0" encoding="UTF-8" standalone="no"?>
<svg width="16px" height="16px" viewBox="0 0 16 16" version="1.1" xmlns="http://www.w3.org/2000/svg" xmlns:xlink="http://www.w3.org/1999/xlink">
    <!-- Generator: sketchtool 39 (31667) - http://www.bohemiancoding.com/sketch -->
    <title>E8AE01A9-1FC6-4370-898F-2FCA6F34A6EC</title>
    <desc>Created with sketchtool.</desc>
    <defs></defs>
    <g id="Page-1" stroke="none" stroke-width="1" fill="none" fill-rule="evenodd">
        <g id="Artboard" transform="translate(-42.000000, -42.000000)" fill="#000000">
            <g id="Group" transform="translate(40.000000, 40.000000)">
                <g id="ic_create">
                    <path d="M9.5,9.5 L6,9.5 L6,10.5 L9.5,10.5 L9.5,14 L10.5,14 L10.5,10.5 L14,10.5 L14,9.5 L10.5,9.5 L10.5,6 L9.5,6 L9.5,9.5 Z M3,10 C3,6.13400675 6.14187327,3 10,3 C13.8659932,3 17,6.14187327 17,10 C17,13.8659932 13.8581267,17 10,17 C6.13400675,17 3,13.8581267 3,10 Z" id="Combined-Shape" transform="translate(10.000000, 10.000000) rotate(45.000000) translate(-10.000000, -10.000000) "></path>
                </g>
            </g>
        </g>
    </g>
</svg>