<?xml version="1.0" encoding="UTF-8" standalone="no"?>
<svg width="40px" height="40px" viewBox="0 0 40 40" version="1.1" xmlns="http://www.w3.org/2000/svg" xmlns:xlink="http://www.w3.org/1999/xlink">
    <!-- Generator: sketchtool 3.8.3 (29802) - http://www.bohemiancoding.com/sketch -->
    <title>26F60115-1066-4D5C-B8CC-9B203A802790</title>
    <desc>Created with sketchtool.</desc>
    <defs></defs>
    <g id="Page-1" stroke="none" stroke-width="1" fill="none" fill-rule="evenodd">
        <g id="提款记录" transform="translate(-16.000000, -89.000000)" fill="#0FA9F1">
            <g id="Group" transform="translate(0.000000, 72.000000)">
                <g id="item-copy-3">
                    <g id="Group-7" transform="translate(16.000000, 17.000000)">
                        <path d="M20,40 C31.045695,40 40,31.045695 40,20 C40,8.954305 31.045695,0 20,0 C8.954305,0 0,8.954305 0,20 C0,31.045695 8.954305,40 20,40 Z M16.4501046,13.4619569 C17.2234215,13.11104 18.1039631,13.2994954 18.9260185,13.2540062 C20.4271631,13.3092431 21.9413046,13.1565292 23.4359508,13.3287385 C26.8801354,14.80064 29.4730215,18.0498708 30.3275692,21.6792615 C30.8052062,24.0252062 30.6362462,26.6993231 29.1773415,28.6878523 C27.4779938,30.9168246 24.5211938,31.5406769 21.87632,31.7421292 C19.0234954,31.8688492 16.0374523,31.7941169 13.3958277,30.5854031 C11.6249969,29.7698462 10.2993108,28.1094892 9.92889846,26.1924431 C8.63895385,21.0911508 11.90768,15.7136738 16.4501046,13.4619569 Z M20.3329354,19.2975754 C19.5173785,18.9174154 18.9910031,18.0336246 18.3119138,17.4357662 C18.03248,17.4877538 17.4768615,17.5852308 17.2006769,17.6372185 C17.1649354,18.0238769 16.8205169,18.4917662 17.1194462,18.8459323 C17.7562954,19.5997538 18.5036185,20.2431015 19.1989538,20.9384369 C18.5263631,20.9384369 17.8472738,20.8896985 17.1746831,20.9579323 C16.38512,21.1431385 16.2194092,22.3843446 16.9699815,22.7027692 C17.6815631,22.8002462 18.4028923,22.7547569 19.1177231,22.7547569 L19.1177231,23.7880123 C18.3898954,23.7880123 17.6588185,23.7425231 16.93424,23.8432492 C16.2713969,23.9992123 16.6353108,24.8245169 16.5735754,25.2859077 C17.4151262,25.3541415 18.2631754,25.3703877 19.1079754,25.3573908 C19.0494892,26.2964185 18.9845046,27.7033354 20.2809477,27.7553231 C21.5838892,27.8300554 21.6878646,26.2931692 21.5838892,25.3476431 C22.3604554,25.3573908 23.1370215,25.3508923 23.9168369,25.3346462 C24.15728,24.8342646 24.1247877,24.3078892 23.9168369,23.8042585 C23.1370215,23.7912615 22.3572062,23.7847631 21.5773908,23.7945108 L21.5773908,22.7482585 C22.3084677,22.7580062 23.0427938,22.7547569 23.7738708,22.7255138 C23.8940923,22.5435569 24.1312862,22.1828923 24.2482585,22.0009354 C24.1670277,21.7897354 24.0045662,21.3673354 23.9265846,21.1528862 C23.1500185,20.8669538 22.3182154,20.9286892 21.5059077,20.9449354 C22.2532308,20.2171077 23.0200492,19.5055262 23.6861415,18.7029662 C23.9818215,17.9816369 23.1955077,17.2863015 22.4969231,17.4520123 C21.5351508,17.6924554 21.2232246,19.02464 20.3329354,19.2975754 Z M15.6767877,8.80256 C18.3249108,8.13971692 21.1257477,8.08448 23.7836185,8.70833231 C24.2222646,8.71483077 24.5276923,9.33218462 24.1865231,9.64411077 C23.6861415,10.3556923 23.0947815,10.9925415 22.5229169,11.6423877 C20.77808,11.6391385 19.0299938,11.6358892 17.2819077,11.6423877 C16.6190646,10.9080615 16.00496,10.1314954 15.4071015,9.33868308 C15.4753354,9.20546462 15.6085538,8.93577846 15.6767877,8.80256 Z" id="ic_withdrew-copy"></path>
                    </g>
                </g>
            </g>
        </g>
    </g>
</svg>