<?xml version="1.0" encoding="UTF-8" standalone="no"?>
<svg width="20px" height="20px" viewBox="0 0 20 20" version="1.1" xmlns="http://www.w3.org/2000/svg" xmlns:xlink="http://www.w3.org/1999/xlink">
    <!-- Generator: sketchtool 3.8.3 (29802) - http://www.bohemiancoding.com/sketch -->
    <title>73B95F63-452D-452D-8D12-4C340483C3AE</title>
    <desc>Created with sketchtool.</desc>
    <defs>
        <rect id="path-1" x="0" y="0" width="360" height="48"></rect>
        <mask id="mask-2" maskContentUnits="userSpaceOnUse" maskUnits="objectBoundingBox" x="-1" y="-1" width="362" height="50">
            <rect x="-1" y="-1" width="362" height="50" fill="white"></rect>
            <use xlink:href="#path-1" fill="black"></use>
        </mask>
    </defs>
    <g id="Page-1" stroke="none" stroke-width="1" fill="none" fill-rule="evenodd">
        <g id="个人中心" transform="translate(-300.000000, -261.000000)">
            <g id="Group-2" transform="translate(0.000000, 247.000000)">
                <g id="Rectangle-25">
                    <use fill="#FFFFFF" fill-rule="evenodd" xlink:href="#path-1"></use>
                    <use stroke="#E0E0E0" mask="url(#mask-2)" stroke-width="2" xlink:href="#path-1"></use>
                </g>
                <g id="Unknown" transform="translate(300.000000, 14.000000)" fill-opacity="0.54" fill="#000000">
                    <path d="M0,0 L20,0 L20,20 L0,20 L0,0 L0,0 L0,0 Z M1.24005,16.259926 L2.5,16.259926 L2.5,15 L3.75995,15 L3.75995,17.5 L1.24005,17.5 L1.24005,18.74005 L3.75995,18.74005 L6.25995,18.74005 L6.25995,17.5 L6.25995,15 L6.25995,13.74005 L2.5,13.74005 L1.24005,13.74005 L1.24005,16.259925 L1.24005,16.259926 L1.24005,16.259926 Z M1.24005,11.24005 L2.5,11.24005 L3.75995,11.24005 L3.75995,10 L5,10 L5,8.75995 L3.75995,8.75995 L3.75995,10 L2.5,10 L2.5,8.75995 L1.24005,8.75995 L1.24005,11.24005 L1.24005,11.24005 L1.24005,11.24005 Z M6.25995,5 L6.25995,3.74005 L6.25995,2.5 L6.25995,1.24005 L5,1.24005 L5,2.5 L3.75995,2.5 L3.75995,3.74005 L5,3.74005 L5,5 L2.5,5 L2.5,1.24005 L1.24005,1.24005 L1.24005,5 L1.24005,6.24005 L2.5,6.24005 L5,6.24005 L6.25995,6.24005 L6.25995,5 L6.25995,5 L6.25995,5 Z M7.5,8.75995 L6.25995,8.75995 L6.25995,11.24005 L7.5,11.24005 L8.75995,11.24005 L8.75995,10 L7.5,10 L7.5,8.75995 L7.5,8.75995 L7.5,8.75995 Z M11.25995,3.74005 L10,3.74005 L10,2.5 L11.25995,2.5 L11.25995,1.24005 L10,1.24005 L10,2.5 L8.75995,2.5 L8.75995,3.74005 L8.75995,5 L10,5 L11.25995,5 L11.25995,3.74005 L11.25995,3.74005 L11.25995,3.74005 Z M11.25995,6.24005 L10,6.24005 L10,7.5 L8.75995,7.5 L8.75995,8.75995 L10,8.75995 L10,7.5 L11.25995,7.5 L11.25995,6.24005 L11.25995,6.24005 L11.25995,6.24005 Z M18.75995,5 L18.75995,2.5 L17.5,2.5 L17.5,1.24005 L16.25995,1.24005 L16.25995,3.74005 L17.5,3.74005 L17.5,5 L15,5 L15,1.24005 L13.74005,1.24005 L13.74005,5 L13.74005,6.24005 L15,6.24005 L17.5,6.24005 L18.75995,6.24005 L18.75995,5 L18.75995,5 L18.75995,5 Z M18.75995,15 L17.5,15 L17.5,13.74005 L18.75995,13.74005 L18.75995,12.5 L17.5,12.5 L17.5,11.24005 L18.75995,11.24005 L18.75995,10 L17.5,10 L17.5,8.75995 L15,8.75995 L15,10 L13.74005,10 L13.74005,8.75995 L11.259975,8.75995 L11.259975,10 L10,10 L10,12.5 L8.75995,12.5 L8.75995,16.259925 L10,16.259925 L10,17.5 L8.75995,17.5 L8.75995,18.759925 L10,18.759925 L11.25995,18.759925 L11.25995,17.5 L12.5,17.5 L12.5,18.759925 L15,18.759925 L15,17.5 L16.25995,17.5 L17.5,17.5 L17.5,16.259925 L18.75995,16.259925 L18.75995,15 L18.75995,15 L18.75995,15 Z M15,12.5 L12.5,12.5 L12.5,11.24005 L16.25995,11.24005 L16.25995,12.5 L17.5,12.5 L17.5,13.759925 L15,13.759925 L15,12.5 L15,12.5 L15,12.5 Z M16.25995,10 L17.5,10 L17.5,11.24005 L16.25995,11.24005 L16.25995,10 L16.25995,10 L16.25995,10 Z M12.5,11.24005 L11.24005,11.24005 L11.24005,10 L12.5,10 L12.5,11.24005 L12.5,11.24005 L12.5,11.24005 Z M13.74005,16.259926 L13.74005,15 L13.74005,13.74005 L15,13.74005 L15,15 L16.25995,15 L16.25995,16.259925 L15,16.259925 L15,17.5 L12.5,17.5 L12.5,16.259925 L13.74005,16.259925 L13.74005,16.259926 L13.74005,16.259926 Z M11.25995,12.5 L12.5,12.5 L12.5,13.759925 L11.25995,13.759925 L11.25995,12.5 L11.25995,12.5 L11.25995,12.5 Z M12.5,16.259926 L11.24005,16.259926 L11.24005,15 L12.5,15 L12.5,16.259925 L12.5,16.259926 L12.5,16.259926 Z M10,13.759926 L11.25995,13.759926 L11.25995,15 L10,15 L10,13.759925 L10,13.759926 L10,13.759926 Z" id="Shape"></path>
                </g>
            </g>
        </g>
    </g>
</svg>