<?xml version="1.0" encoding="UTF-8" standalone="no"?>
<svg width="24px" height="24px" viewBox="0 0 24 24" version="1.1" xmlns="http://www.w3.org/2000/svg" xmlns:xlink="http://www.w3.org/1999/xlink">
    <!-- Generator: sketchtool 3.8.3 (29802) - http://www.bohemiancoding.com/sketch -->
    <title>7E6857B9-D9D7-42D5-A1DE-A82FE666A7FC</title>
    <desc>Created with sketchtool.</desc>
    <defs></defs>
    <g id="Symbols" stroke="none" stroke-width="1" fill="none" fill-rule="evenodd">
        <g id="bottom-navigation5" transform="translate(-312.000000, -8.000000)">
            <g id="Group-2">
                <g id="Group" transform="translate(288.000000, 0.000000)">
                    <g id="Group-3" transform="translate(24.000000, 8.000000)">
                        <rect id="Rectangle-57" fill-opacity="0" fill="#D8D8D8" x="0" y="0" width="24" height="24"></rect>
                        <path d="M12,1 C5.93428571,1 1,5.93428571 1,12 C1,18.0657143 5.93428571,23 12,23 C18.0657143,23 23,18.0657143 23,12 C23,5.93428571 18.0657143,1 12,1 L12,1 Z M6.52985714,19.6646429 C6.60764286,19.6615 6.68542857,19.6591429 6.76242857,19.6316429 C8.304,19.0855714 9.82671429,18.6927143 10.6422857,18.6298571 C11.0516429,18.5984286 11.3675,18.2566429 11.3675,17.8465 L11.3675,16.3960714 C11.3675,16.1650714 11.2661429,15.9458571 11.0901429,15.7965714 C9.78664286,14.6895 9.32228571,12.242 9.32228571,10.3193571 C9.32228571,8.10914286 10.3570714,6.98871429 12.3983571,6.98871429 C14.343,6.98871429 15.2882143,8.07771429 15.2882143,10.3193571 C15.2882143,12.5028571 14.3233571,14.981 13.0921429,15.9615714 C12.9051429,16.1100714 12.7959286,16.3363571 12.7959286,16.576 L12.7959286,17.9266429 C12.7959286,18.325 13.0937143,18.6589286 13.4889286,18.7068571 C14.4019286,18.8160714 15.971,19.3440714 17.1346429,19.8029286 C17.1731429,19.8178571 17.2132143,19.8162857 17.2532857,19.8249286 C15.751,20.8369286 13.9430714,21.4285714 12,21.4285714 C9.9595,21.4285714 8.07378571,20.7701429 6.52985714,19.6646429 L6.52985714,19.6646429 Z M18.2024286,19.084 C18.2079286,18.7657857 18.0232857,18.4640714 17.7097857,18.3399286 C17.1990714,18.1387857 15.6433571,17.5463571 14.3673571,17.2674286 L14.3673571,16.9335 C16.0047857,15.3911429 16.8596429,12.5020714 16.8596429,10.3193571 C16.8596429,7.204 15.234,5.41728571 12.3983571,5.41728571 C9.48807143,5.41728571 7.75085714,7.24957143 7.75085714,10.3193571 C7.75085714,11.3737857 7.90407143,14.8356429 9.79607143,16.7378571 L9.79607143,17.159 C8.69842857,17.3530714 7.30535714,17.7734286 6.23757143,18.1513571 C5.86907143,18.2817857 5.67342857,18.6597143 5.74257143,19.0337143 C3.80264286,17.3051429 2.57142857,14.7971429 2.57142857,12 C2.57142857,6.80092857 6.80092857,2.57142857 12,2.57142857 C17.1990714,2.57142857 21.4285714,6.80092857 21.4285714,12 C21.4285714,14.8238571 20.1745714,17.3546429 18.2024286,19.084 L18.2024286,19.084 Z" id="Shape" fill="#272636"></path>
                    </g>
                </g>
            </g>
        </g>
    </g>
</svg>