<?xml version="1.0" encoding="UTF-8" standalone="no"?>
<svg width="73px" height="73px" viewBox="0 0 73 73" version="1.1" xmlns="http://www.w3.org/2000/svg" xmlns:xlink="http://www.w3.org/1999/xlink">
    <!-- Generator: sketchtool 3.8.3 (29802) - http://www.bohemiancoding.com/sketch -->
    <title>E6090C5E-626B-4932-8ADB-C0B8D1552BFF</title>
    <desc>Created with sketchtool.</desc>
    <defs></defs>
    <g id="Page-1" stroke="none" stroke-width="1" fill="none" fill-rule="evenodd">
        <g id="提现" transform="translate(-144.000000, -189.000000)">
            <g id="Group-2" transform="translate(16.000000, 188.000000)">
                <g id="Group" transform="translate(128.000000, 0.000000)">
                    <path d="M43.9891481,1.39853906 C45.93527,0.995771898 49.1247651,0.786990746 51.1380396,1.20610885 C52.8877212,1.57035289 54.3486719,1.68391218 56.9829263,4.48999991 C59.6171808,7.29608764 58.875,6.755 59.88,9.54 C60.24,11.255 60.565,13.05 60.215,14.795 C59.615,16.55 57.575,16.945 55.94,16.895 C56.415,14.53 56.865,11.965 55.795,9.69 C54.495,6.43 50.995,4.295 47.515,4.49 C43.055,4.5 39.155,8.605 39.15,13.025 C39.155,14.35 39.55,15.625 39.885,16.895 C36.275,16.92 32.67,16.8 29.065,16.825 C27.945,15.555 26.53,14.61 25.075,13.77 C25.175,12.925 25.275,12.08 25.38,11.245 C26.8,12.195 28.185,13.205 29.54,14.25 C30.215,13.55 30.97,12.925 31.91,12.625 C31.89,13.565 31.865,14.515 31.83,15.46 C32.025,15.43 32.415,15.365 32.61,15.335 C32.76,14.54 32.91,13.745 33.065,12.955 C33.38,12.99 34.005,13.065 34.32,13.105 C34.535,14.22 34.5,15.53 35.505,16.285 C35.545,14.11 36.05,11.76 35.39,9.68 C32.24,6.63 26.77,7.245 23.905,10.41 C22.045,12.035 21.545,14.535 21.36,16.88 C20.145,16.88 18.93,16.9 17.715,16.91 C17.855,15.395 18.02,13.88 18.185,12.375 C16.73,12.6 15.195,12.705 13.885,13.43 C12.405,14.235 11.35,15.585 10.25,16.82 C8.655,16.865 7.165,17.455 5.71,18.055 C7.05,13.945 10.14,10.355 14.37,9.115 C16.25,8.56 18.24,8.74 20.17,8.79 C22.87,5.46 27.18,3.385 31.505,4.005 C33.635,4.18 35.59,5.11 37.395,6.205 C38.0662414,5.43751439 40.4442158,2.13219419 43.9891481,1.39853906 Z" id="Shape" fill="#E8B90C"></path>
                    <path d="M45.785,6.88 C46.55,6.23 47.405,7.225 48.185,7.415 C48.165,9.065 48.155,10.715 48.13,12.37 C49.41,11.345 50.71,10.34 52.025,9.36 C52.725,9.8 53.425,10.245 54.13,10.695 C52.645,11.695 51.155,12.695 49.665,13.69 C50.13,14.13 50.6,14.575 51.075,15.02 C50.935,15.3 50.65,15.86 50.51,16.14 C49.695,15.875 48.885,15.61 48.07,15.345 C47.96,15.455 47.735,15.675 47.625,15.785 C48.1,16.145 48.575,16.51 49.055,16.87 C47.59,16.85 46.13,16.845 44.675,16.865 C43.845,16.25 43.015,15.64 42.19,15.03 C42.36,14.705 42.695,14.06 42.865,13.74 C43.84,14.075 44.825,14.41 45.81,14.73 C45.08,14.015 44.335,13.315 43.585,12.625 C43.7,12.235 43.81,11.84 43.925,11.455 C44.605,11.57 45.285,11.69 45.965,11.81 C45.865,10.165 45.685,8.525 45.785,6.88 L45.785,6.88 Z" id="Shape" fill="#E8B90C"></path>
                    <path d="M51.51,37.035 C55.01,35.405 58.975,34.925 62.8,35.265 C65.54,35.695 68.475,36.1 70.775,37.78 C71.475,38.365 72.375,39.03 72.345,40.055 C72.87,48.54 72.42,57.045 72.605,65.54 C72.51,67.53 70.605,68.715 68.96,69.42 C63.825,71.59 57.93,71.345 52.68,69.725 C50.275,72.155 47.03,73.99 43.51,73.76 C37.69,73.715 32.59,68.535 32.565,62.725 C32.35,58.4 34.905,54.145 38.795,52.255 C41.83,50.555 45.495,50.91 48.685,51.95 C48.745,48.13 48.59,44.31 48.69,40.495 C48.675,38.825 50.18,37.73 51.51,37.035 L51.51,37.035 Z M51.825,40.475 C54.165,42.63 57.475,43 60.52,43.09 C63.685,43.1 67.17,42.685 69.57,40.4 C67.28,37.935 63.665,37.65 60.505,37.56 C57.46,37.645 53.915,37.975 51.825,40.475 L51.825,40.475 Z M41.19,54.78 C38.535,55.745 36.39,58.17 35.96,60.99 C35.17,64.85 37.615,68.965 41.38,70.115 C46.285,71.885 52.14,67.74 51.89,62.495 C52.22,57.145 46.18,52.815 41.19,54.78 L41.19,54.78 Z" id="Shape" fill="#E8B90C"></path>
                    <path d="M59.865,39.445 C60.725,38.87 61.43,38.035 62.48,37.79 C62.395,38.365 62.31,38.945 62.22,39.53 C63.435,39.2 64.68,39 65.935,38.9 C64.265,39.835 62.655,41.095 60.665,41.22 C60.935,41.47 61.21,41.725 61.48,41.985 C59.845,42.15 58.215,42.365 56.595,42.645 C56.61,41.985 56.625,41.33 56.635,40.675 C57.7,40.225 58.805,39.9 59.865,39.445 L59.865,39.445 Z" id="Shape" fill="#E8B90C"></path>
                    <path d="M41.945,57.59 C42.425,57.105 42.96,56.68 43.485,56.25 C43.96,57.74 44.365,59.25 44.725,60.775 C45.6,60.505 46.56,60.05 47.285,60.905 C46.745,61.58 46.21,62.265 45.67,62.945 C45.815,63 46.1,63.115 46.24,63.175 C46.855,62.675 47.47,62.18 48.085,61.69 C49.215,62.57 48.22,63.645 47.715,64.55 C48.005,65.05 48.3,65.545 48.6,66.045 C48.23,66.475 47.865,66.9 47.5,67.33 C46.845,67.08 46.195,66.835 45.545,66.59 C45.01,66.985 44.475,67.38 43.945,67.78 C43.685,67.58 43.165,67.175 42.9,66.975 C43.46,66.15 44.005,65.32 44.53,64.48 C43.44,65.05 42.15,66.645 41.065,65.185 C41.455,64.67 41.86,64.175 42.26,63.67 C40.64,63.24 39.025,62.795 37.42,62.325 C37.955,61.71 38.49,61.095 39.025,60.485 C40.385,60.94 41.74,61.41 43.095,61.88 C42.675,60.465 42.05,59.08 41.945,57.59 L41.945,57.59 Z" id="Shape" fill="#E8B90C"></path>
                    <path d="M39.15,13.025 C39.155,8.605 43.055,4.5 47.515,4.49 C50.995,4.295 54.495,6.43 55.795,9.69 C56.865,11.965 56.415,14.53 55.94,16.895 C53.645,16.925 51.35,16.9 49.055,16.87 C48.575,16.51 48.1,16.145 47.625,15.785 C47.735,15.675 47.96,15.455 48.07,15.345 C48.885,15.61 49.695,15.875 50.51,16.14 C50.65,15.86 50.935,15.3 51.075,15.02 C50.6,14.575 50.13,14.13 49.665,13.69 C51.155,12.695 52.645,11.695 54.13,10.695 C53.425,10.245 52.725,9.8 52.025,9.36 C50.71,10.34 49.41,11.345 48.13,12.37 C48.155,10.715 48.165,9.065 48.185,7.415 C47.405,7.225 46.55,6.23 45.785,6.88 C45.685,8.525 45.865,10.165 45.965,11.81 C45.285,11.69 44.605,11.57 43.925,11.455 C43.81,11.84 43.7,12.235 43.585,12.625 C44.335,13.315 45.08,14.015 45.81,14.73 C44.825,14.41 43.84,14.075 42.865,13.74 C42.695,14.06 42.36,14.705 42.19,15.03 C43.015,15.64 43.845,16.25 44.675,16.865 C43.075,16.885 41.48,16.9 39.885,16.895 C39.55,15.625 39.155,14.35 39.15,13.025 L39.15,13.025 Z" id="Shape" fill="#FAD435"></path>
                    <path d="M23.905,10.41 C26.77,7.245 32.24,6.63 35.39,9.68 C36.05,11.76 35.545,14.11 35.505,16.285 C34.5,15.53 34.535,14.22 34.32,13.105 C34.005,13.065 33.38,12.99 33.065,12.955 C32.91,13.745 32.76,14.54 32.61,15.335 C32.415,15.365 32.025,15.43 31.83,15.46 C31.865,14.515 31.89,13.565 31.91,12.625 C30.97,12.925 30.215,13.55 29.54,14.25 C28.185,13.205 26.8,12.195 25.38,11.245 C25.275,12.08 25.175,12.925 25.075,13.77 C26.53,14.61 27.945,15.555 29.065,16.825 C26.5,16.915 23.93,16.9 21.36,16.88 C21.545,14.535 22.045,12.035 23.905,10.41 L23.905,10.41 Z" id="Shape" fill="#FAD435"></path>
                    <path d="M13.885,13.43 C15.195,12.705 16.73,12.6 18.185,12.375 C18.02,13.88 17.855,15.395 17.715,16.91 C15.225,16.93 12.74,16.88 10.25,16.82 C11.35,15.585 12.405,14.235 13.885,13.43 L13.885,13.43 Z" id="Shape" fill="#FAD435"></path>
                    <path d="M51.825,40.475 C53.915,37.975 57.46,37.645 60.505,37.56 C63.665,37.65 67.28,37.935 69.57,40.4 C67.17,42.685 63.685,43.1 60.52,43.09 C57.475,43 54.165,42.63 51.825,40.475 L51.825,40.475 Z M59.865,39.445 C58.805,39.9 57.7,40.225 56.635,40.675 C56.625,41.33 56.61,41.985 56.595,42.645 C58.215,42.365 59.845,42.15 61.48,41.985 C61.21,41.725 60.935,41.47 60.665,41.22 C62.655,41.095 64.265,39.835 65.935,38.9 C64.68,39 63.435,39.2 62.22,39.53 C62.31,38.945 62.395,38.365 62.48,37.79 C61.43,38.035 60.725,38.87 59.865,39.445 L59.865,39.445 Z" id="Shape" fill="#FAD435"></path>
                    <path d="M41.19,54.78 C46.18,52.815 52.22,57.145 51.89,62.495 C52.14,67.74 46.285,71.885 41.38,70.115 C37.615,68.965 35.17,64.85 35.96,60.99 C36.39,58.17 38.535,55.745 41.19,54.78 L41.19,54.78 Z M41.945,57.59 C42.05,59.08 42.675,60.465 43.095,61.88 C41.74,61.41 40.385,60.94 39.025,60.485 C38.49,61.095 37.955,61.71 37.42,62.325 C39.025,62.795 40.64,63.24 42.26,63.67 C41.86,64.175 41.455,64.67 41.065,65.185 C42.15,66.645 43.44,65.05 44.53,64.48 C44.005,65.32 43.46,66.15 42.9,66.975 C43.165,67.175 43.685,67.58 43.945,67.78 C44.475,67.38 45.01,66.985 45.545,66.59 C46.195,66.835 46.845,67.08 47.5,67.33 C47.865,66.9 48.23,66.475 48.6,66.045 C48.3,65.545 48.005,65.05 47.715,64.55 C48.22,63.645 49.215,62.57 48.085,61.69 C47.47,62.18 46.855,62.675 46.24,63.175 C46.1,63.115 45.815,63 45.67,62.945 C46.21,62.265 46.745,61.58 47.285,60.905 C46.56,60.05 45.6,60.505 44.725,60.775 C44.365,59.25 43.96,57.74 43.485,56.25 C42.96,56.68 42.425,57.105 41.945,57.59 L41.945,57.59 Z" id="Shape" fill="#FAD435"></path>
                    <path d="M5.985,10.49 C8.23,8.31 11.59,9.355 14.37,9.115 C10.14,10.355 7.05,13.945 5.71,18.055 C5.31,18.815 4.84,19.535 4.415,20.28 C4.63,17.045 3.345,13.03 5.985,10.49 L5.985,10.49 Z" id="Shape" fill="#BB2209"></path>
                    <path d="M59.88,9.54 C61.63,10.53 62.9,12.395 62.815,14.455 C62.815,21.39 62.84,28.325 62.8,35.265 C58.975,34.925 55.01,35.405 51.51,37.035 C50.18,37.73 48.675,38.825 48.69,40.495 C48.59,44.31 48.745,48.13 48.685,51.95 C45.495,50.91 41.83,50.555 38.795,52.255 C34.905,54.145 32.35,58.4 32.565,62.725 C24.875,62.75 17.19,62.72 9.5,62.745 C6.675,62.97 4.15,60.27 4.31,57.495 C4.315,53.74 4.275,49.985 4.34,46.235 C10.23,46.42 16.125,46.285 22.015,46.32 C24.655,46.54 26.51,43.91 26.675,41.515 C26.885,39.105 26.97,36.26 25.06,34.465 C23.64,32.935 21.395,33.18 19.51,33.14 C14.445,33.23 9.38,33.075 4.32,33.21 C4.38,28.905 4.16,24.575 4.415,20.28 C4.84,19.535 5.31,18.815 5.71,18.055 C7.165,17.455 8.655,16.865 10.25,16.82 C12.74,16.88 15.225,16.93 17.715,16.91 C18.93,16.9 20.145,16.88 21.36,16.88 C23.93,16.9 26.5,16.915 29.065,16.825 C32.67,16.8 36.275,16.92 39.885,16.895 C41.48,16.9 43.075,16.885 44.675,16.865 C46.13,16.845 47.59,16.85 49.055,16.87 C51.35,16.9 53.645,16.925 55.94,16.895 C57.575,16.945 59.615,16.55 60.215,14.795 C60.565,13.05 60.24,11.255 59.88,9.54 L59.88,9.54 Z" id="Shape" fill="#EB4932"></path>
                    <path d="M0.365,36.47 C0.855,34.71 2.445,33.24 4.32,33.21 C9.38,33.075 14.445,33.23 19.51,33.14 C21.395,33.18 23.64,32.935 25.06,34.465 C26.97,36.26 26.885,39.105 26.675,41.515 C26.51,43.91 24.655,46.54 22.015,46.32 C16.125,46.285 10.23,46.42 4.34,46.235 C2.185,46.08 0.265,44.18 0.27,41.99 C0.23,40.15 0.15,38.295 0.365,36.47 L0.365,36.47 Z M16.67,37.17 C14.66,37.88 14.495,41.2 16.43,42.08 C17.98,42.945 20.445,41.965 20.41,40.03 C20.855,38.02 18.47,36.2 16.67,37.17 L16.67,37.17 Z" id="Shape" fill="#BE2708"></path>
                    <path d="M16.67,37.17 C18.47,36.2 20.855,38.02 20.41,40.03 C20.445,41.965 17.98,42.945 16.43,42.08 C14.495,41.2 14.66,37.88 16.67,37.17 L16.67,37.17 Z" id="Shape" fill="#FDB53D"></path>
                </g>
            </g>
        </g>
    </g>
</svg>