<?xml version="1.0" encoding="UTF-8" standalone="no"?>
<svg width="96px" height="96px" viewBox="0 0 96 96" version="1.1" xmlns="http://www.w3.org/2000/svg" xmlns:xlink="http://www.w3.org/1999/xlink">
    <!-- Generator: sketchtool 3.8.3 (29802) - http://www.bohemiancoding.com/sketch -->
    <title>36E5CDA2-DDE3-4C5A-9D44-88C8E7D1BACF</title>
    <desc>Created with sketchtool.</desc>
    <defs></defs>
    <g id="Page-1" stroke="none" stroke-width="1" fill="none" fill-rule="evenodd">
        <g id="购物车-空" transform="translate(-132.000000, -220.000000)">
            <g id="Group-2" transform="translate(113.000000, 220.000000)">
                <g id="Group" transform="translate(19.000000, 0.000000)">
                    <circle id="Oval-11" fill-opacity="0.87" fill="#000000" cx="48" cy="48" r="48"></circle>
                    <path d="M19,27.1303836 C20.2796495,27.0007989 21.5690178,26.9813611 22.8551465,27.0137573 C24.7146878,27.0526328 26.5936668,26.8614952 28.4305307,27.2502495 C29.2469147,29.3689603 29.6291897,31.6204954 30.4617718,33.732727 C32.1269359,33.9821776 33.8115377,33.8947079 35.4896603,33.8882287 C46.2905498,33.8914683 57.0946789,33.8849891 67.8955684,33.8914683 C70.228094,33.9465418 72.5670989,33.7197685 74.8899057,34.0372512 C75.2171072,35.2909837 74.7441228,36.5252785 74.394244,37.7174583 C73.2571377,41.7993781 72.3500444,45.9428507 71.1481458,50.0053328 C70.5423371,52.3799735 70.2637299,54.8874385 69.0326747,57.0547436 C67.3707502,57.3819451 65.6764295,57.297715 63.9983069,57.2815169 C54.7038402,57.2491207 45.4126131,57.3139131 36.121386,57.2426415 C34.8773723,57.2426415 33.3288345,57.3722263 32.6679522,58.6065211 C31.9001626,60.0027968 33.043748,61.8007853 34.5339727,62.0275587 C36.1343445,62.2834886 37.7638728,62.1085491 39.377203,62.1279868 C48.6684301,62.1117887 57.9596572,62.1344661 67.2541239,62.118268 C68.7670259,62.1733415 70.4159919,62.1927792 71.7183187,63.070716 C73.1858661,64.2337391 74.096199,66.3427311 73.3640452,68.1633969 C72.7517572,70.0520947 70.8306632,71.3576612 68.8577352,71.299348 C66.9431205,71.2701914 64.8017323,70.2594303 64.192684,68.3253778 C63.9399937,67.023051 64.1959236,65.6915677 64.2315594,64.379522 C63.1819229,64.3017711 62.1322864,64.2564165 61.0826498,64.2823334 C53.880977,64.3989597 46.6728248,64.1948637 39.4743916,64.3762824 C39.7206026,65.9766541 40.2680982,67.8297162 39.1018354,69.2195127 C37.4010355,71.7820512 33.383908,71.9569907 31.3170311,69.7637686 C30.3548643,68.8663942 30.1248514,67.4798373 30.2414777,66.2228652 C30.2997908,65.0209665 31.1420917,64.0814771 31.7284628,63.0901537 C31.1064559,62.1733415 30.2188003,61.2889255 30.2544361,60.103225 C30.2414777,59.0373904 30.2738739,57.7868975 31.0967371,56.9996701 C31.845089,56.3063916 32.6841503,55.7200206 33.4843362,55.0850553 C33.3061572,52.9955011 32.4023035,51.0679278 31.9876323,49.0302075 C30.1669664,42.369551 28.52124,35.6603002 26.6714176,29.0093626 C24.1380356,28.6108895 21.5366216,29.278251 19.0356358,28.6076498 C19.025917,28.1152278 19.0161981,27.6228057 19,27.1303836 L19,27.1303836 Z M31.0092674,36.1753996 C31.4919706,38.1710049 31.8774852,40.1892875 32.3828658,42.1816531 C33.7435057,46.3478031 34.5663689,50.6662151 35.8946127,54.8388443 C36.6170477,54.9198347 37.3427223,54.994346 38.0716366,55.0105441 C47.2624355,54.9716686 56.456474,54.9749083 65.6440333,55.0137837 C66.3308325,54.9489913 67.2897597,55.0753364 67.5618877,54.2557129 C68.7313901,51.7903629 69.0197162,49.0399264 69.8004643,46.4514709 C70.2442921,44.9936424 70.662203,43.5293346 70.9667272,42.0391099 C71.3781588,40.066182 72.1686258,38.187203 72.3986387,36.1753996 C70.364158,35.9583452 68.3167189,36.0717318 66.275759,36.0717318 C56.4402759,36.0490545 46.6080325,36.0684922 36.775789,36.062013 C34.8514554,36.0458149 32.9238821,35.968064 31.0092674,36.1753996 L31.0092674,36.1753996 Z M34.0123941,64.4572729 C33.1571347,64.8427875 32.4994921,65.6850884 32.34723,66.6083798 C32.3796262,67.5543485 32.9433198,68.4646815 33.7143492,68.9894997 C35.262887,69.7799667 37.4366713,68.6752567 37.5403391,66.8967059 C37.4690675,65.9831334 37.047917,65.0371646 36.283367,64.4993879 C35.5738904,64.1916241 34.7348291,64.1948637 34.0123941,64.4572729 L34.0123941,64.4572729 Z M67.7044309,64.4572729 C66.8491715,64.8427875 66.1915289,65.6850884 66.0392668,66.6083798 C66.071663,67.5543485 66.6353567,68.4646815 67.406386,68.9894997 C68.9549238,69.7799667 71.1287081,68.6752567 71.2323759,66.8967059 C71.1611043,65.9831334 70.7399538,65.0371646 69.9754038,64.4993879 C69.2659272,64.1916241 68.4268659,64.1948637 67.7044309,64.4572729 L67.7044309,64.4572729 Z" id="Shape" fill="#FFFFFF"></path>
                </g>
            </g>
        </g>
    </g>
</svg>