<?xml version="1.0" encoding="UTF-8" standalone="no"?>
<svg width="24px" height="24px" viewBox="0 0 24 24" version="1.1" xmlns="http://www.w3.org/2000/svg" xmlns:xlink="http://www.w3.org/1999/xlink">
    <!-- Generator: sketchtool 39.1 (31720) - http://www.bohemiancoding.com/sketch -->
    <title>56F77C17-1245-4500-997A-54302EEF5523</title>
    <desc>Created with sketchtool.</desc>
    <defs>
        <rect id="path-1" x="0" y="0" width="168" height="247" rx="8"></rect>
        <mask id="mask-2" maskContentUnits="userSpaceOnUse" maskUnits="objectBoundingBox" x="0" y="0" width="168" height="247" fill="white">
            <use xlink:href="#path-1"></use>
        </mask>
        <mask id="mask-4" maskContentUnits="userSpaceOnUse" maskUnits="objectBoundingBox" x="0" y="0" width="168" height="247" fill="white">
            <use xlink:href="#path-1"></use>
        </mask>
    </defs>
    <g id="Symbols" stroke="none" stroke-width="1" fill="none" fill-rule="evenodd">
        <g id="商品卡片" transform="translate(-136.000000, -215.000000)">
            <g id="Rectangle-17">
                <mask id="mask-3" fill="white">
                    <use xlink:href="#path-1"></use>
                </mask>
                <g id="Mask" stroke-opacity="0.12" stroke="#000000" mask="url(#mask-2)" stroke-width="2" fill="#FFFFFF">
                    <use mask="url(#mask-4)" xlink:href="#path-1"></use>
                </g>
                <g id="Group" mask="url(#mask-3)">
                    <g transform="translate(136.000000, 215.000000)">
                        <rect id="Rectangle-18" fill="#000000" x="0" y="0" width="24" height="24" rx="12"></rect>
                        <path d="M9.49949691,17 C8.94803905,17 8.50138313,17.4475 8.50138313,18 C8.50138313,18.5525 8.94803905,19 9.49949691,19 C10.0509548,19 10.4976107,18.5525 10.4976107,18 C10.4976107,17.4475 10.0509548,17 9.49949691,17 L9.49949691,17 L9.49949691,17 Z M16.4862934,17 C15.9348355,17 15.4881796,17.4475 15.4881796,18 C15.4881796,18.5525 15.9348355,19 16.4862934,19 C17.0377512,19 17.4844071,18.5525 17.4844071,18 C17.4844071,17.4475 17.0377512,17 16.4862934,17 L16.4862934,17 L16.4862934,17 Z M17.4764222,16.5 L9.37024118,16.5 C8.6511002,16.5 8.01879512,15.93 7.93096111,15.2025 L7.08456062,9.2325 L6.60297073,6.4425 C6.57302731,6.199 6.35144605,6 6.13485537,6 L5.49905689,6 C5.22357749,6 5,5.776 5,5.5 C5,5.224 5.22357749,5 5.49905689,5 L6.13485537,5 C6.86297937,5 7.50227124,5.57 7.59060431,6.2975 L8.07119609,9.077 L8.92108998,15.0725 C8.94903716,15.3045 9.15864105,15.5 9.37024118,15.5 L17.4764222,15.5 C17.7524007,15.5 17.9754791,15.7235 17.9754791,16 C17.9754791,16.2765 17.7524007,16.5 17.4764222,16.5 L17.4764222,16.5 Z M9.99406229,14.5 C9.73505176,14.5 9.51596579,14.3 9.49700163,14.0365 C9.47654029,13.761 9.68314984,13.5215 9.95763113,13.5015 L16.7278369,13.0015 C16.9763672,13 17.1859711,12.8045 17.2134192,12.582 L17.9994338,8.076 C18.0193961,7.908 17.9729838,7.724 17.8726734,7.61 C17.8082951,7.537 17.7274478,7.5 17.6331261,7.5 L8.99245511,7.5 C8.71697571,7.5 8.49339822,7.276 8.49339822,7 C8.49339822,6.724 8.71697571,6.5 8.99245511,6.5 L17.6331261,6.5 C18.0144055,6.5 18.3647435,6.6585 18.6197616,6.947 C18.9112108,7.2765 19.044958,7.741 18.9865684,8.2225 L18.2000547,12.729 C18.115215,13.43 17.483409,14 16.764268,14 L10.0309925,14.4985 C10.0185161,14.4995 10.0060397,14.5 9.99406229,14.5 L9.99406229,14.5 Z" id="Shape" fill="#FFFFFF"></path>
                    </g>
                </g>
            </g>
        </g>
    </g>
</svg>