<?xml version="1.0" encoding="UTF-8" standalone="no"?>
<svg width="24px" height="24px" viewBox="0 0 24 24" version="1.1" xmlns="http://www.w3.org/2000/svg" xmlns:xlink="http://www.w3.org/1999/xlink">
    <!-- Generator: sketchtool 39.1 (31720) - http://www.bohemiancoding.com/sketch -->
    <title>658C8B20-7842-4D23-B5B3-E53A614E6245</title>
    <desc>Created with sketchtool.</desc>
    <defs></defs>
    <g id="Page-1" stroke="none" stroke-width="1" fill="none" fill-rule="evenodd">
        <g id="活动商品" transform="translate(-16.000000, -1324.000000)">
            <g id="Group-5" transform="translate(0.000000, 1308.000000)">
                <g id="Group-6" transform="translate(16.000000, 16.000000)">
                    <rect id="Rectangle-18" fill-opacity="0" fill="#767676" x="0" y="0" width="24" height="24" rx="8"></rect>
                    <path d="M2,5.04659932 C2.45701767,5.00028551 2.91750636,4.99333844 3.37683804,5.00491689 C4.04095992,5.01881104 4.71202384,4.95049816 5.36804667,5.0894396 C5.65961238,5.84667043 5.79613917,6.65137292 6.09348991,7.40628806 C6.68819139,7.49544215 7.2898349,7.46418033 7.8891644,7.46186464 C11.7466249,7.46302248 15.6052425,7.46070679 19.462703,7.46302248 C20.2957479,7.48270586 21.1311068,7.40165668 21.9606806,7.51512552 C22.0775383,7.96321166 21.9086153,8.40435072 21.7836586,8.8304378 C21.3775492,10.2893229 21.0535873,11.770207 20.6243378,13.2221451 C20.4079775,14.0708457 20.3084749,14.9670179 19.8688124,15.7416164 C19.2752679,15.8585588 18.6701534,15.8284548 18.0708239,15.8226656 C14.7513715,15.8110872 11.4330761,15.8342441 8.11478072,15.8087715 C7.67049012,15.8087715 7.11744089,15.8550853 6.88141151,16.2962244 C6.60720091,16.7952557 7.0156243,17.4378598 7.54784741,17.518909 C8.11940875,17.6103788 8.70138315,17.5478551 9.27757251,17.5548022 C12.5958679,17.549013 15.9141633,17.5571179 19.2336157,17.5513287 C19.7739378,17.571012 20.3628543,17.5779591 20.827971,17.8917352 C21.352095,18.3074017 21.6772139,19.061159 21.4157304,19.711868 C21.1970561,20.3868918 20.5109511,20.8535035 19.806334,20.8326623 C19.122543,20.8222417 18.3577616,20.4609939 18.1402443,19.7697603 C18.0499978,19.3043065 18.1414013,18.828432 18.1541284,18.3595047 C17.7792582,18.3317164 17.404388,18.3155066 17.0295178,18.3247693 C14.4574918,18.3664518 11.8831517,18.2935075 9.31228271,18.3583468 C9.40021523,18.9303224 9.59574937,19.59261 9.17922694,20.0893256 C8.57179839,21.0051812 7.13711001,21.0677049 6.3989397,20.2838436 C6.05530869,19.9631204 5.97316121,19.4675627 6.01481345,19.0183187 C6.03563957,18.5887581 6.33646133,18.2529829 6.54587955,17.8986823 C6.32373426,17.571012 6.0067144,17.2549203 6.01944148,16.8311489 C6.01481345,16.4502178 6.02638352,16.0032895 6.32026324,15.7219331 C6.5875318,15.4741542 6.88719655,15.2645842 7.17297722,15.0376465 C7.10934185,14.2908363 6.78653696,13.6019183 6.6384401,12.8736336 C5.9882023,10.4931037 5.40044286,8.09520602 4.739792,5.7181496 C3.83501272,5.57573463 2.90593629,5.81425076 2.01272707,5.57457678 C2.00925605,5.3985843 2.00578503,5.22259181 2,5.04659932 L2,5.04659932 Z M6.28902405,8.27930343 C6.46141806,8.99253614 6.59910187,9.71387377 6.77959492,10.4259486 C7.26553776,11.9149377 7.55941747,13.4583455 8.03379025,14.9496503 C8.29180275,14.9785964 8.55097227,15.0052268 8.81129879,15.0110161 C12.093727,14.9971219 15.3773121,14.9982798 18.6585833,15.0121739 C18.9038687,14.989017 19.2463427,15.034173 19.3435313,14.7412381 C19.7612108,13.8601178 19.8641844,12.8771072 20.143023,11.9519888 C20.3015329,11.4309584 20.4507868,10.9076123 20.5595454,10.3750034 C20.7064853,9.66987565 20.9887949,8.99832537 21.0709424,8.27930343 C20.3443422,8.20172779 19.6131139,8.24225238 18.8841996,8.24225238 C15.3715271,8.23414746 11.8600116,8.24109453 8.34849608,8.23877884 C7.66123407,8.23298962 6.97281505,8.20520133 6.28902405,8.27930343 L6.28902405,8.27930343 Z M7.36156932,18.387293 C7.05611953,18.5250766 6.82124716,18.8261164 6.76686785,19.1561023 C6.77843791,19.4941931 6.97975709,19.8195476 7.2551247,20.0071186 C7.80817393,20.2896328 8.58452546,19.8948076 8.62154968,19.2591505 C8.59609553,18.9326381 8.44568465,18.5945473 8.17263106,18.402345 C7.91924658,18.2923497 7.61958183,18.2935075 7.36156932,18.387293 L7.36156932,18.387293 Z M19.3944396,18.387293 C19.0889898,18.5250766 18.8541175,18.8261164 18.7997381,19.1561023 C18.8113082,19.4941931 19.0126274,19.8195476 19.287995,20.0071186 C19.8410442,20.2896328 20.6173958,19.8948076 20.65442,19.2591505 C20.6289658,18.9326381 20.4785549,18.5945473 20.2055013,18.402345 C19.9521169,18.2923497 19.6524521,18.2935075 19.3944396,18.387293 L19.3944396,18.387293 Z" id="Shape" fill-opacity="0.87" fill="#000000"></path>
                </g>
            </g>
        </g>
    </g>
</svg>