<?xml version="1.0" encoding="UTF-8" standalone="no"?>
<svg width="24px" height="24px" viewBox="0 0 24 24" version="1.1" xmlns="http://www.w3.org/2000/svg" xmlns:xlink="http://www.w3.org/1999/xlink">
    <!-- Generator: sketchtool 3.6.1 (26313) - http://www.bohemiancoding.com/sketch -->
    <title>ic_friend</title>
    <desc>Created with sketchtool.</desc>
    <defs></defs>
    <g id="Page-1" stroke="none" stroke-width="1" fill="none" fill-rule="evenodd">
        <g id="Figure8/首页" transform="translate(-752.000000, -938.000000)">
            <g id="Group-7" transform="translate(144.000000, 344.000000)">
                <g id="Group-4-Copy-4" transform="translate(584.000000, 578.000000)">
                    <g id="Group-4">
                        <g id="ic_face" transform="translate(24.000000, 16.000000)">
                            <path d="M8.4,11.7 C7.572,11.7 6.9,12.372 6.9,13.2 C6.9,14.028 7.572,14.7 8.4,14.7 C9.228,14.7 9.9,14.028 9.9,13.2 C9.9,12.372 9.228,11.7 8.4,11.7 L8.4,11.7 Z M15.6,11.7 C14.772,11.7 14.1,12.372 14.1,13.2 C14.1,14.028 14.772,14.7 15.6,14.7 C16.428,14.7 17.1,14.028 17.1,13.2 C17.1,12.372 16.428,11.7 15.6,11.7 L15.6,11.7 Z M12,0 C5.376,0 0,5.376 0,12 C0,18.624 5.376,24 12,24 C18.624,24 24,18.624 24,12 C24,5.376 18.624,0 12,0 L12,0 Z M12,21.6 C6.708,21.6 2.4,17.292 2.4,12 C2.4,11.652 2.424,11.304 2.46,10.968 C5.292,9.708 7.536,7.392 8.712,4.524 C10.884,7.596 14.46,9.6 18.504,9.6 C19.44,9.6 20.34,9.492 21.204,9.288 C21.456,10.14 21.6,11.052 21.6,12 C21.6,17.292 17.292,21.6 12,21.6 L12,21.6 Z" id="Shape" fill="#009CEB"></path>
                            <path d="M0,0 L24,0 L24,24 L0,24 L0,0 Z" id="Shape"></path>
                        </g>
                    </g>
                </g>
            </g>
        </g>
    </g>
</svg>