<?xml version="1.0" encoding="UTF-8" standalone="no"?>
<svg width="24px" height="24px" viewBox="0 0 24 24" version="1.1" xmlns="http://www.w3.org/2000/svg" xmlns:xlink="http://www.w3.org/1999/xlink">
    <!-- Generator: sketchtool 3.8.3 (29802) - http://www.bohemiancoding.com/sketch -->
    <title>F1FD3340-4FAF-4906-879B-F4F11E7AE01E</title>
    <desc>Created with sketchtool.</desc>
    <defs></defs>
    <g id="Page-1" stroke="none" stroke-width="1" fill="none" fill-rule="evenodd">
        <g id="粉丝订单-2" transform="translate(-32.000000, -188.000000)">
            <g id="Group" transform="translate(0.000000, 164.000000)">
                <g id="Group-3" transform="translate(16.000000, 16.000000)">
                    <g id="Group-2" transform="translate(16.000000, 8.000000)">
                        <rect id="Rectangle-107" fill-opacity="0" fill="#D8D8D8" x="0" y="0" width="24" height="24"></rect>
                        <path d="M13.7053858,14.7869878 C12.7957949,15.4714196 11.6645448,15.8770903 10.4385452,15.8770903 C7.43491961,15.8770903 5,13.4421707 5,10.4385452 C5,7.43491961 7.43491961,5 10.4385452,5 C13.4421707,5 15.8770903,7.43491961 15.8770903,10.4385452 C15.8770903,11.6649028 15.4711826,12.7964556 14.7863881,13.7061826 C14.8735326,13.7458266 14.9550101,13.8013204 15.0262316,13.872542 L18.7595095,17.6058198 C19.0802247,17.9265351 19.0841747,18.4425673 18.763371,18.763371 C18.4447884,19.0819536 17.9233664,19.077056 17.6058198,18.7595095 L13.872542,15.0262316 C13.8010562,14.9547458 13.745308,14.8735563 13.7053858,14.7869878 Z M10.4385452,14.7893813 C12.8414456,14.7893813 14.7893813,12.8414456 14.7893813,10.4385452 C14.7893813,8.03564472 12.8414456,6.08770903 10.4385452,6.08770903 C8.03564472,6.08770903 6.08770903,8.03564472 6.08770903,10.4385452 C6.08770903,12.8414456 8.03564472,14.7893813 10.4385452,14.7893813 Z" id="Search-Icon" fill="#7A797B"></path>
                    </g>
                </g>
            </g>
        </g>
    </g>
</svg>