<?xml version="1.0" encoding="UTF-8" standalone="no"?>
<svg width="96px" height="96px" viewBox="0 0 96 96" version="1.1" xmlns="http://www.w3.org/2000/svg" xmlns:xlink="http://www.w3.org/1999/xlink">
    <!-- Generator: sketchtool 3.8.3 (29802) - http://www.bohemiancoding.com/sketch -->
    <title>02191A3B-3937-4D6E-AF6A-F0A8CF00F27C</title>
    <desc>Created with sketchtool.</desc>
    <defs>
        <rect id="path-1" x="49" y="22" width="52" height="52"></rect>
        <mask id="mask-2" maskContentUnits="userSpaceOnUse" maskUnits="objectBoundingBox" x="0" y="0" width="52" height="52" fill="white">
            <use xlink:href="#path-1"></use>
        </mask>
    </defs>
    <g id="Page-1" stroke="none" stroke-width="1" fill="none" fill-rule="evenodd">
        <g id="我的订单" transform="translate(-132.000000, -243.000000)">
            <g id="Group-2" transform="translate(105.000000, 243.000000)">
                <circle id="Oval-9" fill-opacity="0.87" fill="#000000" cx="75" cy="48" r="48"></circle>
                <use id="Rectangle-23" stroke="#FFFFFF" mask="url(#mask-2)" stroke-width="6" fill-opacity="0" fill="#FFFFFF" xlink:href="#path-1"></use>
                <g id="ic_list" transform="translate(53.000000, 26.000000)">
                    <path d="M5.5,23.8333333 L9.16666667,23.8333333 L9.16666667,20.1666667 L5.5,20.1666667 L5.5,23.8333333 L5.5,23.8333333 Z M5.5,31.1666667 L9.16666667,31.1666667 L9.16666667,27.5 L5.5,27.5 L5.5,31.1666667 L5.5,31.1666667 Z M5.5,16.5 L9.16666667,16.5 L9.16666667,12.8333333 L5.5,12.8333333 L5.5,16.5 L5.5,16.5 Z M12.8333333,23.8333333 L38.5,23.8333333 L38.5,20.1666667 L12.8333333,20.1666667 L12.8333333,23.8333333 L12.8333333,23.8333333 Z M12.8333333,31.1666667 L38.5,31.1666667 L38.5,27.5 L12.8333333,27.5 L12.8333333,31.1666667 L12.8333333,31.1666667 Z M12.8333333,12.8333333 L12.8333333,16.5 L38.5,16.5 L38.5,12.8333333 L12.8333333,12.8333333 L12.8333333,12.8333333 Z" id="Shape" fill="#FFFFFF"></path>
                    <polygon id="Shape" points="0 0 44 0 44 44 0 44"></polygon>
                </g>
            </g>
        </g>
    </g>
</svg>