<?xml version="1.0" encoding="UTF-8" standalone="no"?>
<svg width="24px" height="24px" viewBox="0 0 24 24" version="1.1" xmlns="http://www.w3.org/2000/svg" xmlns:xlink="http://www.w3.org/1999/xlink">
    <!-- Generator: sketchtool 3.8.3 (29802) - http://www.bohemiancoding.com/sketch -->
    <title>C9DB2348-990F-46C9-9BEC-AF30AD7C2BAB</title>
    <desc>Created with sketchtool.</desc>
    <defs></defs>
    <g id="Symbols" stroke="none" stroke-width="1" fill="none" fill-rule="evenodd">
        <g id="bottom-navigation2" transform="translate(-96.000000, -8.000000)">
            <g id="Group-2">
                <g id="Group" transform="translate(72.000000, 0.000000)">
                    <g id="Group-3" transform="translate(24.000000, 8.000000)">
                        <rect id="Rectangle-57" fill-opacity="0" fill="#D8D8D8" x="0" y="0" width="24" height="24"></rect>
                        <g id="store" transform="translate(1.000000, 2.000000)" fill="#272636">
                            <path d="M21.7889413,6.34519227 C21.7873548,6.33329355 21.784975,6.32218808 21.7825953,6.3126691 C21.7730763,6.2666607 21.7603844,6.2222388 21.7421396,6.1794034 L19.8827659,1.55080021 C19.5607071,0.590969902 18.6357797,0.00237974457 17.5537892,3.52272962e-16 L4.50247673,0 C3.40620773,0 2.55425917,0.58303742 2.24568563,1.50479182 L0.246700187,6.22779154 C0.237181209,6.25555523 0.226868982,6.29680413 0.218143252,6.33884629 C0.0729788335,6.78465177 0,7.24235598 0,7.70164668 C0.00158649638,9.31669999 0.887644725,10.7913484 2.31152523,11.5504869 C2.31152523,11.5504869 2.31152523,11.5512801 2.31231847,11.5512801 C2.31311172,11.5512801 2.31311172,11.5512801 2.31311172,11.5520734 L2.31311172,11.5520734 C2.31311172,11.5520734 2.31390497,11.5520734 2.31390497,11.5528666 C2.90011538,11.8654064 3.58944806,12.0240561 4.36603804,12.0240561 C5.66775832,12.0200898 6.87349557,11.4481579 7.69530069,10.4692896 C8.51313958,11.4402254 9.70935785,12.0081911 11.0086984,12.0161236 C12.2977267,12.0058114 13.490772,11.4354659 14.3046446,10.4653234 C15.1264497,11.4441916 16.3337735,12.0137438 17.6418398,12.0137438 C18.4335014,12.0097776 19.1363193,11.8431955 19.7280825,11.518757 C21.1305453,10.7524792 22.0007386,9.28338357 21.9999453,7.68498847 C22.0023251,7.22569777 21.9269665,6.76482057 21.7889413,6.34519227 L21.7889413,6.34519227 Z M18.968944,10.1266064 C18.6096025,10.3233319 18.1614173,10.4240745 17.6402533,10.4272475 C16.674077,10.4272475 15.7935715,9.93702008 15.2795466,9.10490273 C15.2430572,9.02637116 15.1819771,8.89627845 15.0677494,8.77094524 C14.9368634,8.62419432 14.698889,8.45047297 14.3070244,8.45047297 C13.9913116,8.45047297 13.704949,8.57977243 13.5431264,8.77808447 C13.4360378,8.8986582 13.3773375,9.01843868 13.3352953,9.10569598 C12.8276165,9.9275011 11.9542502,10.422488 11.0079051,10.4296272 C10.0496613,10.4240745 9.17391532,9.93067409 8.66306349,9.10252298 C8.62736732,9.02954415 8.5678737,8.90659068 8.47506366,8.80267517 C8.10223702,8.35766293 7.26773992,8.38066713 6.94250816,8.7685655 C6.82272768,8.89945145 6.76006108,9.03113065 6.71960542,9.12076769 C6.20716709,9.94257282 5.32586835,10.4351799 4.36445154,10.4383529 C3.85201321,10.4383529 3.41334696,10.3423699 3.05955827,10.1535768 L3.05876502,10.1535768 C3.05876502,10.1535768 3.05876502,10.1535768 3.05797177,10.1535768 C2.15049584,9.67048869 1.58649638,8.73128283 1.58570313,7.70323318 C1.58570313,7.39941912 1.63647102,7.09322532 1.73800678,6.794964 C1.74514602,6.7735463 1.751492,6.74974885 1.75704474,6.72515816 L3.72588675,2.07037778 C3.76634241,1.95139055 3.88850263,1.58887613 4.50089023,1.58887613 L17.5561689,1.58887613 C17.8076286,1.60394784 18.2407421,1.64836974 18.3946323,2.10131446 L20.2381411,6.69184173 C20.2452803,6.72515816 20.254006,6.75688808 20.2619385,6.78306527 C20.3642675,7.08211984 20.4150354,7.3859339 20.4150354,7.68736821 C20.4166219,8.70351914 19.8621414,9.63796551 18.968944,10.1266064 L18.968944,10.1266064 Z M19.5638801,12.6721398 C19.1252139,12.6721398 18.7706319,13.0267218 18.7706319,13.465388 L18.7722184,17.7933502 C18.7722184,18.0392571 18.5715266,18.2391556 18.3264129,18.2399489 L3.40144824,18.2494679 C3.1555413,18.2494679 2.95564276,18.0511558 2.95564276,17.8068354 L2.95009002,13.5534386 C2.94929677,13.1155656 2.59392158,12.7617769 2.15684183,12.7617769 L2.15525533,12.7617769 C1.71738233,12.7625701 1.36280039,13.1179453 1.36359364,13.5566116 L1.36914638,17.8076286 C1.36914638,18.9261086 2.28058855,19.8359642 3.40144824,19.8359642 L18.3287927,19.8264453 C19.4480659,19.8240655 20.3587148,18.9118301 20.3587148,17.7925569 L20.3571283,13.465388 C20.3571283,13.0267218 20.0017531,12.6721398 19.5638801,12.6721398 L19.5638801,12.6721398 Z M17.2071397,7.11940251 L4.5151687,7.11940251 C4.0772957,7.11940251 3.72192051,6.76402732 3.72192051,6.32615432 C3.72192051,5.88828132 4.0772957,5.53290613 4.5151687,5.53290613 L17.2071397,5.53290613 C17.645806,5.53290613 18.0003879,5.88828132 18.0003879,6.32615432 C18.0003879,6.76402732 17.645806,7.11940251 17.2071397,7.11940251 L17.2071397,7.11940251 Z" id="Shape"></path>
                        </g>
                    </g>
                </g>
            </g>
        </g>
    </g>
</svg>