<?xml version="1.0" encoding="UTF-8" standalone="no"?>
<svg width="24px" height="24px" viewBox="0 0 24 24" version="1.1" xmlns="http://www.w3.org/2000/svg" xmlns:xlink="http://www.w3.org/1999/xlink">
    <!-- Generator: sketchtool 3.8.3 (29802) - http://www.bohemiancoding.com/sketch -->
    <title>F60E494A-897D-4B21-815C-564C40D34D1C</title>
    <desc>Created with sketchtool.</desc>
    <defs></defs>
    <g id="Symbols" stroke="none" stroke-width="1" fill="none" fill-rule="evenodd">
        <g id="bottom-navigation4" transform="translate(-240.000000, -8.000000)">
            <g id="Group-2">
                <g id="Group" transform="translate(216.000000, 0.000000)">
                    <g id="Group-3" transform="translate(24.000000, 8.000000)">
                        <rect id="Rectangle-57" fill-opacity="0" fill="#D8D8D8" x="0" y="0" width="24" height="24"></rect>
                        <path d="M19.7692308,23 L4.53846154,23 C3.13892308,23 2,21.8610769 2,20.4615385 L2,3.53846154 C2,2.13892308 3.13892308,1 4.53846154,1 L19.7692308,1 C21.1687692,1 22.3076923,2.13892308 22.3076923,3.53846154 L22.3076923,20.4615385 C22.3076923,21.8610769 21.1687692,23 19.7692308,23 L19.7692308,23 Z M4.53846154,2.69230769 C4.07223077,2.69230769 3.69230769,3.07223077 3.69230769,3.53846154 L3.69230769,20.4615385 C3.69230769,20.9286154 4.07223077,21.3076923 4.53846154,21.3076923 L19.7692308,21.3076923 C20.2363077,21.3076923 20.6153846,20.9286154 20.6153846,20.4615385 L20.6153846,3.53846154 C20.6153846,3.07223077 20.2363077,2.69230769 19.7692308,2.69230769 L4.53846154,2.69230769 L4.53846154,2.69230769 Z M15.5646923,12.869 L6.22484615,12.869 C5.75776923,12.869 5.37869231,12.4899231 5.37869231,12.0228462 C5.37869231,11.5557692 5.75776923,11.1766923 6.22484615,11.1766923 L15.5646923,11.1766923 C16.0326154,11.1766923 16.4108462,11.5557692 16.4108462,12.0228462 C16.4108462,12.4899231 16.0326154,12.869 15.5646923,12.869 L15.5646923,12.869 Z M18.0473077,17.9103846 L6.22146154,17.9103846 C5.75438462,17.9103846 5.37530769,17.5321538 5.37530769,17.0642308 C5.37530769,16.5963077 5.75438462,16.2180769 6.22146154,16.2180769 L18.0473077,16.2180769 C18.5152308,16.2180769 18.8934615,16.5963077 18.8934615,17.0642308 C18.8934615,17.5321538 18.5152308,17.9103846 18.0473077,17.9103846 L18.0473077,17.9103846 Z M5.377,6.53553846 C5.377,7.23651526 5.94525397,7.80476923 6.64623077,7.80476923 C7.34720757,7.80476923 7.91546154,7.23651526 7.91546154,6.53553846 C7.91546154,5.83456166 7.34720757,5.26630769 6.64623077,5.26630769 C5.94525397,5.26630769 5.377,5.83456166 5.377,6.53553846 L5.377,6.53553846 Z M10.8609231,6.53553846 C10.8609231,7.23651526 11.429177,7.80476923 12.1301538,7.80476923 C12.8311306,7.80476923 13.3993846,7.23651526 13.3993846,6.53553846 C13.3993846,5.83456166 12.8311306,5.26630769 12.1301538,5.26630769 C11.429177,5.26630769 10.8609231,5.83456166 10.8609231,6.53553846 L10.8609231,6.53553846 Z M16.3643077,6.53553846 C16.3643077,7.23651526 16.9325617,7.80476923 17.6335385,7.80476923 C18.3345153,7.80476923 18.9027692,7.23651526 18.9027692,6.53553846 C18.9027692,5.83456166 18.3345153,5.26630769 17.6335385,5.26630769 C16.9325617,5.26630769 16.3643077,5.83456166 16.3643077,6.53553846 L16.3643077,6.53553846 Z" id="Shape" fill="#272636"></path>
                    </g>
                </g>
            </g>
        </g>
    </g>
</svg>