<?xml version="1.0" encoding="UTF-8" standalone="no"?>
<svg width="24px" height="24px" viewBox="0 0 24 24" version="1.1" xmlns="http://www.w3.org/2000/svg" xmlns:xlink="http://www.w3.org/1999/xlink">
    <!-- Generator: sketchtool 3.8.3 (29802) - http://www.bohemiancoding.com/sketch -->
    <title>8B59BFEE-AB8D-4BCC-B8E6-433EF48DFE35</title>
    <desc>Created with sketchtool.</desc>
    <defs></defs>
    <g id="Symbols" stroke="none" stroke-width="1" fill="none" fill-rule="evenodd">
        <g id="bottom-navigation" transform="translate(-24.000000, -8.000000)">
            <g id="Group-2">
                <g id="Group">
                    <g id="Group-3" transform="translate(24.000000, 8.000000)">
                        <rect id="Rectangle-57" fill-opacity="0" fill="#D8D8D8" x="0" y="0" width="24" height="24"></rect>
                        <path d="M22.7230107,9.82132661 L13.4280291,2.47496157 C12.6279009,1.84131283 11.3723376,1.84204622 10.5729428,2.47496157 L1.27869463,9.82132661 C0.961136869,10.0728793 0.906866028,10.5341814 1.15768532,10.8517392 C1.40850461,11.169297 1.8595393,11.2235678 2.17709706,10.9727485 L2.46678601,10.7351302 L2.46678601,19.6179468 C2.46678601,20.877177 3.79348805,21.818116 4.96031113,21.818116 L19.628106,21.818116 C20.7809946,21.818116 21.5349193,20.933648 21.5349193,19.6179468 L21.5349193,10.7695995 L21.8026065,10.9727485 C21.9375503,11.07909 22.1032963,11.1304273 22.2624419,11.1304273 C22.4787919,11.1304273 22.6958753,11.0350866 22.840353,10.8517392 C23.0919057,10.5341814 23.0413018,10.0728793 22.7230107,9.82132661 L22.7230107,9.82132661 Z M10.2674629,16.2854238 C10.2674629,16.0830082 11.6341578,14.9818004 12.0008527,14.9818004 C12.3675475,14.9818004 13.7342424,16.0830082 13.7342424,16.2854238 L13.7342424,20.3513365 L10.2674629,20.3513365 L10.2674629,16.2854238 Z M19.628106,20.3513365 L15.2156897,20.3513365 C15.2156897,20.3403357 15.2010219,16.2854238 15.2010219,16.2854238 C15.2010219,15.4324915 13.5131023,13.5142876 12.0008527,13.5142876 C10.488603,13.5142876 8.80068343,15.4324915 8.80068343,16.2854238 L8.80068343,20.3205342 C8.80068343,20.331535 4.96031113,20.3513365 4.96031113,20.3513365 C4.50047576,20.3513365 3.93356549,19.9538393 3.93356549,19.6179468 L3.93356549,9.57564105 L11.4720786,3.62565008 C11.7426995,3.41150027 12.231137,3.41150027 12.5024912,3.62565008 L20.0681398,9.61011037 L20.0681398,19.6179468 C20.0681398,20.1041842 19.9339295,20.3513365 19.628106,20.3513365 Z" id="Shape" fill="#272636"></path>
                    </g>
                </g>
            </g>
        </g>
    </g>
</svg>