<?xml version="1.0" encoding="UTF-8" standalone="no"?>
<svg width="24px" height="24px" viewBox="0 0 24 24" version="1.1" xmlns="http://www.w3.org/2000/svg" xmlns:xlink="http://www.w3.org/1999/xlink">
    <!-- Generator: sketchtool 3.8.3 (29802) - http://www.bohemiancoding.com/sketch -->
    <title>D2C090D8-3A06-4A4E-9026-71E0EB1972E7</title>
    <desc>Created with sketchtool.</desc>
    <defs></defs>
    <g id="Symbols" stroke="none" stroke-width="1" fill="none" fill-rule="evenodd">
        <g id="bottom-navigation3" transform="translate(-168.000000, -8.000000)">
            <g id="Group-2">
                <g id="Group" transform="translate(144.000000, 0.000000)">
                    <g id="Group-3" transform="translate(24.000000, 8.000000)">
                        <rect id="Rectangle-57" fill-opacity="0" fill="#D8D8D8" x="0" y="0" width="24" height="24"></rect>
                        <path d="M8.070638,19.8215741 C7.20406136,19.8215741 6.50217349,20.523462 6.50217349,21.3900386 C6.50217349,22.2566152 7.20406136,22.9585031 8.070638,22.9585031 C8.93721464,22.9585031 9.63910251,22.2566152 9.63910251,21.3900386 C9.63910251,20.523462 8.93721464,19.8215741 8.070638,19.8215741 L8.070638,19.8215741 L8.070638,19.8215741 Z M19.0498896,19.8215741 C18.1833129,19.8215741 17.481425,20.523462 17.481425,21.3900386 C17.481425,22.2566152 18.1833129,22.9585031 19.0498896,22.9585031 C19.9164662,22.9585031 20.6183541,22.2566152 20.6183541,21.3900386 C20.6183541,20.523462 19.9164662,19.8215741 19.0498896,19.8215741 L19.0498896,19.8215741 L19.0498896,19.8215741 Z M20.6058063,19.0373418 L7.86752185,19.0373418 C6.73744317,19.0373418 5.7438209,18.1433171 5.60579603,17.0022591 L4.27573812,7.63852603 L3.518954,3.26251005 C3.47190006,2.88058894 3.12370094,2.56846451 2.78334415,2.56846451 L1.78423225,2.56846451 C1.35133605,2.56846451 1,2.21712846 1,1.78423225 C1,1.35133605 1.35133605,1 1.78423225,1 L2.78334415,1 C3.927539,1 4.93214052,1.89402477 5.07094963,3.0350827 L5.82616529,7.3946298 L7.16171282,16.7983588 C7.20562983,17.1622425 7.53500737,17.4688773 7.86752185,17.4688773 L20.6058063,17.4688773 C21.0394868,17.4688773 21.3900386,17.8194291 21.3900386,18.2531096 C21.3900386,18.68679 21.0394868,19.0373418 20.6058063,19.0373418 L20.6058063,19.0373418 Z M8.84781216,15.9004128 C8.44079562,15.9004128 8.09651767,15.5867199 8.06671684,15.1734295 C8.03456332,14.7413176 8.35923547,14.3656703 8.79056321,14.334301 L19.429458,13.5500688 C19.8200056,13.5477161 20.1493832,13.2410813 20.1925159,12.8920979 L21.4276817,5.82459683 C21.459051,5.56109479 21.3861174,5.27249732 21.2284868,5.09369237 C21.1273208,4.97919446 21.0002752,4.92116127 20.8520553,4.92116127 L7.27385803,4.92116127 C6.84096183,4.92116127 6.48962578,4.56982522 6.48962578,4.13692902 C6.48962578,3.70403281 6.84096183,3.35269676 7.27385803,3.35269676 L20.8520553,3.35269676 C21.4512087,3.35269676 22.0017398,3.60129839 22.4024824,4.0538004 C22.8604741,4.57060945 23.0706483,5.29916122 22.9788931,6.05437688 L21.7429431,13.1226622 C21.6096236,14.2221558 20.6167856,15.1161806 19.4867069,15.1161806 L8.90584535,15.8980601 C8.88623955,15.8996286 8.86663374,15.9004128 8.84781216,15.9004128 L8.84781216,15.9004128 Z" id="Shape" fill="#272636"></path>
                    </g>
                </g>
            </g>
        </g>
    </g>
</svg>