<?xml version="1.0" encoding="UTF-8" standalone="no"?>
<svg width="24px" height="24px" viewBox="0 0 24 24" version="1.1" xmlns="http://www.w3.org/2000/svg" xmlns:xlink="http://www.w3.org/1999/xlink">
    <!-- Generator: sketchtool 3.8.3 (29802) - http://www.bohemiancoding.com/sketch -->
    <title>61D9ED4B-BD07-4C57-B930-265289B6BBD2</title>
    <desc>Created with sketchtool.</desc>
    <defs></defs>
    <g id="Page-1" stroke="none" stroke-width="1" fill="none" fill-rule="evenodd">
        <g id="选择收货地址" transform="translate(-16.000000, -558.000000)">
            <g id="Group-4-Copy-2" transform="translate(0.000000, 506.000000)">
                <g id="微信支付" transform="translate(0.000000, 40.000000)">
                    <g id="wechat_pay" transform="translate(16.000000, 12.000000)">
                        <path d="M0,0 L24,0 L24,24 L0,24 L0,0 L0,0 Z M6.133125,4.910625 C4.9771875,5.454375 3.9609375,6.3290625 3.3271875,7.4465625 C2.7225,8.5059375 2.48625,9.781875 2.7309375,10.981875 C3,12.4340625 3.928125,13.7025 5.1225,14.54625 C4.9246875,15.200625 4.7315625,15.856875 4.5384375,16.5140625 C4.4559375,16.6434375 4.665,16.81875 4.76625,16.6846875 C5.469375,16.2703125 6.166875,15.8465625 6.86625,15.4265625 C7.7334375,15.72 8.65125,15.8446875 9.564375,15.82875 C9.4021875,15.196875 9.32625,14.5340625 9.429375,13.8853125 C9.590625,12.63375 10.2834375,11.48625 11.2425,10.6790625 C12.5175,9.6 14.2265625,9.0740625 15.886875,9.185625 C15.5596875,7.160625 13.9884375,5.505 12.12,4.7615625 C10.21875,3.9834375 7.993125,4.0359375 6.133125,4.910625 L6.133125,4.910625 Z M11.998125,10.68 C11.071875,11.3090625 10.3265625,12.2353125 10.0125,13.3190625 C9.7171875,14.29875 9.8015625,15.3815625 10.231875,16.30875 C10.7578125,17.4628125 11.76,18.3553125 12.9084375,18.868125 C14.4825,19.5740625 16.3378125,19.599375 17.94375,18.9778125 C18.5315625,19.273125 19.085625,19.6453125 19.663125,19.965 L19.7559375,19.96875 L19.820625,19.8609375 C19.7015625,19.30125 19.4503125,18.7715625 19.2975,18.2175 C20.2875,17.4946875 21.0290625,16.395 21.21375,15.1725 C21.4040625,14.04375 21.080625,12.85875 20.4103125,11.94 C19.6378125,10.8675 18.4471875,10.138125 17.175,9.815625 C15.4321875,9.376875 13.490625,9.658125 11.998125,10.68 L11.998125,10.68 Z" id="Shape" fill="#0BC216"></path>
                        <path d="M6.39375,7.3453125 C6.976875,7.065 7.70625,7.6284375 7.5778125,8.263125 C7.5084375,8.8584375 6.7415625,9.2053125 6.2559375,8.8425 C5.698125,8.5078125 5.78625,7.575 6.39375,7.3453125 L6.39375,7.3453125 Z" id="Shape" fill="#0BC216"></path>
                        <path d="M11.645625,7.3303125 C12.2203125,7.089375 12.9065625,7.625625 12.7996875,8.2425 C12.7453125,8.870625 11.919375,9.2221875 11.4346875,8.8134375 C10.90125,8.4478125 11.0334375,7.5346875 11.645625,7.3303125 L11.645625,7.3303125 Z" id="Shape" fill="#0BC216"></path>
                        <path d="M13.153125,11.9371875 C13.53,11.7525 14.0296875,11.9371875 14.1853125,12.3290625 C14.3821875,12.7359375 14.113125,13.25625 13.6865625,13.3696875 C13.2328125,13.5159375 12.7078125,13.1296875 12.7190625,12.6525 C12.6984375,12.3496875 12.88875,12.069375 13.153125,11.9371875 L13.153125,11.9371875 Z" id="Shape" fill="#0BC216"></path>
                        <path d="M17.281875,11.9428125 C17.769375,11.6784375 18.435,12.0984375 18.384375,12.6553125 C18.3975,13.2009375 17.720625,13.59375 17.2546875,13.303125 C16.7175,13.044375 16.7353125,12.181875 17.281875,11.9428125 L17.281875,11.9428125 Z" id="Shape" fill="#0BC216"></path>
                        <path d="M6.133125,4.910625 C7.993125,4.0359375 10.21875,3.9834375 12.12,4.7615625 C13.9884375,5.505 15.5596875,7.160625 15.886875,9.185625 C14.2265625,9.0740625 12.5175,9.6 11.2425,10.6790625 C10.2834375,11.48625 9.590625,12.63375 9.429375,13.8853125 C9.32625,14.5340625 9.4021875,15.196875 9.564375,15.82875 C8.65125,15.8446875 7.7334375,15.72 6.86625,15.4265625 C6.166875,15.8465625 5.469375,16.2703125 4.76625,16.6846875 C4.665,16.81875 4.4559375,16.6434375 4.5384375,16.5140625 C4.7315625,15.856875 4.9246875,15.200625 5.1225,14.54625 C3.928125,13.7025 3,12.4340625 2.7309375,10.981875 C2.48625,9.781875 2.7225,8.5059375 3.3271875,7.4465625 C3.9609375,6.3290625 4.9771875,5.454375 6.133125,4.910625 L6.133125,4.910625 Z M6.39375,7.3453125 C5.78625,7.575 5.698125,8.5078125 6.2559375,8.8425 C6.7415625,9.2053125 7.5084375,8.8584375 7.5778125,8.263125 C7.70625,7.6284375 6.976875,7.065 6.39375,7.3453125 L6.39375,7.3453125 Z M11.645625,7.3303125 C11.0334375,7.5346875 10.90125,8.4478125 11.4346875,8.8134375 C11.919375,9.2221875 12.7453125,8.870625 12.7996875,8.2425 C12.9065625,7.625625 12.2203125,7.089375 11.645625,7.3303125 L11.645625,7.3303125 Z" id="Shape" fill="#FFFFFF"></path>
                        <path d="M11.998125,10.68 C13.490625,9.658125 15.4321875,9.376875 17.175,9.815625 C18.4471875,10.138125 19.6378125,10.8675 20.4103125,11.94 C21.080625,12.85875 21.4040625,14.04375 21.21375,15.1725 C21.0290625,16.395 20.2875,17.4946875 19.2975,18.2175 C19.4503125,18.7715625 19.7015625,19.30125 19.820625,19.8609375 L19.7559375,19.96875 L19.663125,19.965 C19.085625,19.6453125 18.5315625,19.273125 17.94375,18.9778125 C16.3378125,19.599375 14.4825,19.5740625 12.9084375,18.868125 C11.76,18.3553125 10.7578125,17.4628125 10.231875,16.30875 C9.8015625,15.3815625 9.7171875,14.29875 10.0125,13.3190625 C10.3265625,12.2353125 11.071875,11.3090625 11.998125,10.68 L11.998125,10.68 Z M13.153125,11.9371875 C12.88875,12.069375 12.6984375,12.3496875 12.7190625,12.6525 C12.7078125,13.1296875 13.2328125,13.5159375 13.6865625,13.3696875 C14.113125,13.25625 14.3821875,12.7359375 14.1853125,12.3290625 C14.0296875,11.9371875 13.53,11.7525 13.153125,11.9371875 L13.153125,11.9371875 Z M17.281875,11.9428125 C16.7353125,12.181875 16.7175,13.044375 17.2546875,13.303125 C17.720625,13.59375 18.3975,13.2009375 18.384375,12.6553125 C18.435,12.0984375 17.769375,11.6784375 17.281875,11.9428125 L17.281875,11.9428125 Z" id="Shape" fill="#FFFFFF"></path>
                    </g>
                </g>
            </g>
        </g>
    </g>
</svg>